<?xml version="1.0" encoding="utf-8"?>
<svg width="152.193" height="109.124" viewBox="0 0 152.193 109.124" fill="none" xmlns="http://www.w3.org/2000/svg">
  <g id="Group" transform="translate(-0 0)">
    <path id="Shape" d="M72.4557 108.165L149.508 58.0338Q149.821 57.8301 150.106 57.5884Q150.391 57.3468 150.643 57.0712Q150.895 56.7955 151.111 56.4902Q151.326 56.185 151.501 55.8549Q151.677 55.5249 151.809 55.1755Q151.941 54.826 152.028 54.4626Q152.115 54.0993 152.155 53.7279Q152.196 53.3565 152.189 52.9829Q152.182 52.6094 152.128 52.2396Q152.074 51.8699 151.974 51.51Q151.874 51.15 151.73 50.8055Q151.585 50.4611 151.398 50.1376Q151.211 49.8142 150.985 49.5169Q150.758 49.2196 150.496 48.9533Q150.234 48.687 149.941 48.4558Q149.647 48.2246 149.327 48.0324L70.7048 0.841082Q70.5367 0.740135 70.3621 0.650584Q70.1876 0.561033 70.0075 0.483275Q69.8275 0.405516 69.6426 0.339893Q69.4578 0.274269 69.269 0.221071Q69.0802 0.167874 68.8883 0.127336Q68.6963 0.086799 68.5022 0.0591013Q68.308 0.0314037 68.1124 0.016668Q67.9168 0.00193232 67.7206 0.000223786Q67.5245 -0.00148475 67.3287 0.00984139Q67.1328 0.0211675 66.9382 0.0454783Q66.7436 0.0697891 66.551 0.106977Q66.3584 0.144165 66.1687 0.194066Q65.979 0.243967 65.793 0.30636Q65.6071 0.368753 65.4257 0.443363Q65.2443 0.517973 65.0682 0.60447Q64.8922 0.690967 64.7222 0.788969Q64.5523 0.886971 64.3893 0.996045Q64.2263 1.10512 64.0709 1.22478Q63.9154 1.34445 63.7683 1.47417Q63.6212 1.60389 63.483 1.74311Q63.3448 1.88232 63.2162 2.03041Q63.0875 2.17849 62.969 2.33479Q62.8505 2.4911 62.7427 2.65493Q62.6348 2.81876 62.5381 2.9894Q62.4413 3.16003 62.3561 3.33672Q62.271 3.5134 62.1977 3.69536Q62.1244 3.87731 62.0634 4.06373Q62.0024 4.25015 61.9539 4.44022Q61.9054 4.63028 61.8697 4.82314Q61.8339 5.016 61.811 5.21082Q61.7882 5.40563 61.7783 5.60153Q61.7684 5.79743 61.7716 5.99356L62.2042 32.8154L8.93401 0.841084Q8.76583 0.740137 8.59132 0.650587Q8.4168 0.561036 8.23672 0.483277Q8.05664 0.405518 7.8718 0.339895Q7.68695 0.274272 7.49815 0.221074Q7.30935 0.167876 7.11744 0.127339Q6.92552 0.0868015 6.73133 0.0591038Q6.53715 0.0314061 6.34155 0.0166705Q6.14596 0.00193482 5.94981 0.000226304Q5.75367 -0.00148221 5.55785 0.00984396Q5.36203 0.0211701 5.16739 0.0454809Q4.97275 0.0697918 4.78016 0.10698Q4.58756 0.144168 4.39787 0.194069Q4.20817 0.24397 4.02221 0.306363Q3.83624 0.368756 3.65484 0.443366Q3.47343 0.517977 3.29738 0.604474Q3.12133 0.690971 2.95142 0.788973Q2.78151 0.886975 2.61848 0.996048Q2.45545 1.10512 2.30003 1.22479Q2.14461 1.34445 1.99748 1.47417Q1.85036 1.6039 1.71217 1.74311Q1.57399 1.88232 1.44536 2.03041Q1.31673 2.17849 1.19822 2.3348Q1.07971 2.4911 0.971853 2.65493Q0.863991 2.81877 0.767252 2.9894Q0.670513 3.16004 0.585324 3.33672Q0.500135 3.51341 0.426873 3.69536Q0.35361 3.87732 0.292598 4.06374Q0.231586 4.25016 0.183093 4.44022Q0.134601 4.63028 0.0988422 4.82314Q0.0630836 5.01601 0.0402171 5.21082Q0.0173506 5.40563 0.00747722 5.60154Q-0.00239621 5.79744 0.000767059 5.99356L1.57047 103.317Q1.57364 103.513 1.58988 103.709Q1.60612 103.905 1.63536 104.099Q1.6646 104.293 1.70671 104.485Q1.74882 104.677 1.80361 104.866Q1.85841 105.055 1.92564 105.239Q1.99287 105.424 2.07224 105.604Q2.15162 105.784 2.24278 105.958Q2.33394 106.132 2.43649 106.299Q2.53904 106.467 2.65252 106.627Q2.766 106.788 2.8899 106.94Q3.01381 107.093 3.14759 107.237Q3.28138 107.381 3.42445 107.516Q3.56752 107.65 3.71923 107.775Q3.87095 107.9 4.03065 108.015Q4.19034 108.129 4.3573 108.233Q4.52427 108.336 4.69776 108.429Q4.87125 108.521 5.0505 108.602Q5.22975 108.682 5.41397 108.751Q5.59818 108.819 5.78654 108.875Q5.9749 108.931 6.16658 108.974Q6.35825 109.018 6.55238 109.048Q6.74651 109.079 6.94225 109.096Q7.13798 109.114 7.33445 109.118Q7.53091 109.123 7.72724 109.114Q7.92357 109.106 8.11888 109.084Q8.3142 109.062 8.50764 109.028Q8.70108 108.993 8.89179 108.945Q9.08249 108.898 9.26962 108.838Q9.45675 108.778 9.63946 108.706Q9.82218 108.633 9.99968 108.549Q10.1772 108.465 10.3487 108.369Q10.5202 108.273 10.6849 108.165L62.8719 74.2117L63.3413 103.317Q63.3444 103.513 63.3607 103.709Q63.3769 103.905 63.4062 104.099Q63.4354 104.293 63.4775 104.485Q63.5196 104.677 63.5744 104.866Q63.6292 105.055 63.6964 105.239Q63.7637 105.424 63.843 105.604Q63.9224 105.784 64.0136 105.958Q64.1047 106.132 64.2073 106.299Q64.3098 106.467 64.4233 106.627Q64.5368 106.788 64.6607 106.94Q64.7846 107.093 64.9184 107.237Q65.0522 107.381 65.1952 107.516Q65.3383 107.65 65.49 107.775Q65.6418 107.9 65.8014 108.015Q65.9611 108.129 66.1281 108.233Q66.2951 108.336 66.4686 108.429Q66.642 108.521 66.8213 108.602Q67.0005 108.682 67.1848 108.751Q67.369 108.819 67.5573 108.875Q67.7457 108.931 67.9374 108.974Q68.129 109.018 68.3232 109.048Q68.5173 109.079 68.713 109.096Q68.9088 109.114 69.1052 109.118Q69.3017 109.123 69.498 109.114Q69.6944 109.105 69.8897 109.084Q70.085 109.062 70.2784 109.027Q70.4719 108.993 70.6626 108.945Q70.8533 108.898 71.0404 108.838Q71.2275 108.778 71.4103 108.706Q71.593 108.633 71.7705 108.549Q71.948 108.465 72.1195 108.369Q72.2909 108.273 72.4557 108.165ZM62.8719 74.2117L87.7372 58.0338Q88.0504 57.8301 88.3353 57.5884Q88.6203 57.3468 88.8724 57.0712Q89.1246 56.7955 89.34 56.4902Q89.5554 56.185 89.7306 55.8549Q89.9057 55.5249 90.0378 55.1755Q90.1699 54.826 90.2569 54.4626Q90.3439 54.0993 90.3843 53.7279Q90.4247 53.3565 90.4179 52.9829Q90.4112 52.6094 90.3573 52.2396Q90.3035 51.8699 90.2034 51.51Q90.1033 51.15 89.9587 50.8055Q89.814 50.4611 89.627 50.1376Q89.44 49.8142 89.2137 49.5169Q88.9874 49.2196 88.7254 48.9533Q88.4634 48.687 88.1699 48.4558Q87.8764 48.2246 87.556 48.0324L62.2042 32.8154L62.8719 74.2117Z" fill="#FFFFFF" fill-rule="evenodd" transform="translate(0 0)" />
    <path id="Rectangle" d="M0 0L80.4985 48.4935L81.4984 49.4982L82.1885 50.8038C82.1885 50.8038 82.4983 51.4245 82.4983 52.1849C82.4983 52.9453 82.4983 52.9981 82.4983 52.9981L8.99982 13.4995L0 0Z" fill="#AAAAAA" fill-rule="evenodd" transform="translate(69.499 0)" />
    <path id="Rectangle" d="M0 0L15.6414 9.42266L54.1403 32.615L54.1403 33.7823L6.49987 14.4995L0 0Z" fill="#AAAAAA" fill-rule="evenodd" transform="translate(8 0)" />
  </g>
</svg>