<?xml version="1.0" encoding="utf-8"?>
<svg width="256" height="256" viewBox="0 0 256 256" fill="none" xmlns="http://www.w3.org/2000/svg">
  <defs>
    <filter color-interpolation-filters="sRGB" x="-205.671" y="-142.379" width="207.671" height="144.379" id="filter_1">
      <feFlood flood-opacity="0" result="BackgroundImageFix_1" />
      <feColorMatrix type="matrix" values="0 0 0 0 0 0 0 0 0 0 0 0 0 0 0 0 0 0 1 0" in="SourceAlpha" />
      <feOffset dx="-13" dy="3" />
      <feGaussianBlur stdDeviation="2" />
      <feColorMatrix type="matrix" values="0 0 0 0 0 0 0 0 0 0 0 0 0 0 0 0 0 0 0.251 0" />
      <feBlend mode="normal" in2="BackgroundImageFix_1" result="Shadow_2" />
      <feBlend mode="normal" in="SourceGraphic" in2="Shadow_2" result="Shape_3" />
    </filter>
  </defs>
  <g>
    <rect width="256" height="256" fill="#000000" fill-rule="evenodd" fill-opacity="0" />
    <g id="Group">
      <path id="Oval" d="M0 128C0 57.3075 57.3075 0 128 0C198.692 0 256 57.3075 256 128C256 198.692 198.692 256 128 256C57.3075 256 0 198.692 0 128Z" fill="#9B5AB1" fill-rule="evenodd" />
      <g id="Group" transform="translate(38.224 56.583)">
        <path id="Shape" d="M94.9205 143.491L204.885 75.1971Q205.209 74.9959 205.504 74.7548Q205.799 74.5136 206.061 74.2364Q206.323 73.9592 206.547 73.6507Q206.771 73.3421 206.953 73.0073Q207.135 72.6724 207.273 72.3169Q207.411 71.9614 207.501 71.5911Q207.592 71.2208 207.635 70.8419Q207.677 70.463 207.67 70.0818Q207.664 69.7006 207.608 69.3234Q207.552 68.9463 207.448 68.5794Q207.344 68.2126 207.194 67.8622Q207.044 67.5117 206.85 67.1836Q206.656 66.8554 206.421 66.555Q206.186 66.2545 205.915 65.9868Q205.643 65.7191 205.34 65.4885Q205.036 65.258 204.705 65.0685L92.5008 0.780527Q92.3322 0.683909 92.1576 0.598601Q91.983 0.513294 91.8031 0.439666Q91.6232 0.366038 91.4389 0.30441Q91.2546 0.242781 91.0666 0.19342Q90.8786 0.144058 90.6878 0.107178Q90.497 0.0702969 90.3042 0.0460572Q90.1114 0.0218175 89.9173 0.0103238Q89.7233 -0.00116986 89.529 0.000132382Q89.3346 0.00143463 89.1408 0.0155271Q88.947 0.0296196 88.7545 0.0564413Q88.562 0.0832629 88.3717 0.122697Q88.1814 0.162132 87.9941 0.214008Q87.8068 0.265884 87.6233 0.329977Q87.4398 0.39407 87.261 0.470101Q87.0821 0.546133 86.9087 0.633773Q86.7352 0.721413 86.5679 0.820282Q86.4005 0.919151 86.2401 1.02882Q86.0797 1.13849 85.9268 1.25848Q85.7739 1.37847 85.6292 1.50827Q85.4846 1.63807 85.3488 1.7771Q85.213 1.91614 85.0866 2.06382Q84.9603 2.21149 84.8439 2.36716Q84.7276 2.52283 84.6217 2.68583Q84.5159 2.84882 84.421 3.01842Q84.3261 3.18803 84.2426 3.36352Q84.159 3.539 84.0872 3.71961Q84.0155 3.90021 83.9557 4.08515Q83.896 4.27009 83.8485 4.45855Q83.8011 4.64702 83.7661 4.83821Q83.7312 5.02939 83.7089 5.22246Q83.6867 5.41553 83.6771 5.60964Q83.6676 5.80376 83.6709 5.99808L84.3135 44.0287L8.83077 0.780534Q8.66214 0.683916 8.48751 0.598608Q8.31288 0.5133 8.13302 0.439673Q7.95316 0.366045 7.76884 0.304416Q7.58452 0.242788 7.39655 0.193427Q7.20857 0.144065 7.01775 0.107184Q6.82694 0.0703038 6.6341 0.0460641Q6.44127 0.0218244 6.24726 0.0103308Q6.05326 -0.0011628 5.85891 0.00013952Q5.66457 0.00144184 5.47073 0.0155344Q5.27689 0.029627 5.0844 0.0564488Q4.89191 0.0832705 4.70161 0.122705Q4.5113 0.16214 4.32401 0.214016Q4.13671 0.265892 3.95323 0.329985Q3.76975 0.394078 3.5909 0.47011Q3.41204 0.546142 3.23857 0.633782Q3.0651 0.721423 2.89778 0.820292Q2.73046 0.919161 2.57001 1.02883Q2.40956 1.1385 2.25668 1.25849Q2.1038 1.37849 1.95914 1.50828Q1.81449 1.63808 1.6787 1.77712Q1.5429 1.91615 1.41655 2.06383Q1.29021 2.2115 1.17385 2.36717Q1.0575 2.52284 0.951648 2.68584Q0.845796 2.84883 0.750902 3.01844Q0.656008 3.18804 0.572484 3.36353Q0.488961 3.53902 0.41717 3.71962Q0.34538 3.90022 0.285634 4.08516Q0.225887 4.2701 0.178444 4.45857Q0.131002 4.64704 0.0960681 4.83822Q0.0611346 5.0294 0.0388619 5.22247Q0.0165891 5.41554 0.00707378 5.60966Q-0.00244155 5.80377 0.000841803 5.99809L2.24102 138.58Q2.2443 138.774 2.26039 138.968Q2.27648 139.162 2.30531 139.354Q2.33414 139.547 2.37557 139.737Q2.41701 139.927 2.47087 140.114Q2.52474 140.301 2.5908 140.484Q2.65686 140.667 2.73482 140.845Q2.81279 141.023 2.90233 141.196Q2.99187 141.368 3.09259 141.535Q3.19331 141.701 3.30477 141.86Q3.41623 142.02 3.53795 142.172Q3.65968 142.323 3.79113 142.467Q3.92258 142.61 4.06319 142.744Q4.2038 142.879 4.35295 143.004Q4.50211 143.128 4.65917 143.243Q4.81623 143.358 4.9805 143.462Q5.14478 143.566 5.31556 143.659Q5.48634 143.752 5.66288 143.834Q5.83942 143.916 6.02095 143.985Q6.20249 144.055 6.38823 144.113Q6.57397 144.171 6.76311 144.216Q6.95226 144.261 7.14397 144.294Q7.33569 144.327 7.52915 144.347Q7.72262 144.367 7.91698 144.375Q8.11135 144.382 8.30577 144.376Q8.5002 144.371 8.69384 144.352Q8.88748 144.334 9.07949 144.303Q9.2715 144.272 9.46105 144.229Q9.6506 144.185 9.83687 144.129Q10.0231 144.073 10.2053 144.005Q10.3875 143.937 10.5648 143.857Q10.7421 143.777 10.9137 143.685Q11.0853 143.594 11.2506 143.491L85.2178 97.5532L85.9109 138.58Q85.9142 138.774 85.9303 138.968Q85.9464 139.162 85.9752 139.354Q86.0041 139.547 86.0455 139.737Q86.0869 139.927 86.1408 140.114Q86.1946 140.301 86.2607 140.484Q86.3268 140.666 86.4047 140.845Q86.4827 141.023 86.5722 141.196Q86.6618 141.368 86.7625 141.535Q86.8632 141.701 86.9747 141.86Q87.0861 142.02 87.2079 142.171Q87.3296 142.323 87.461 142.467Q87.5925 142.61 87.7331 142.744Q87.8737 142.879 88.0229 143.004Q88.172 143.128 88.3291 143.243Q88.4861 143.358 88.6504 143.462Q88.8147 143.566 88.9855 143.659Q89.1563 143.752 89.3328 143.834Q89.5093 143.916 89.6909 143.985Q89.8724 144.055 90.0581 144.113Q90.2439 144.171 90.433 144.216Q90.6222 144.261 90.8139 144.294Q91.0056 144.327 91.1991 144.347Q91.3925 144.367 91.5869 144.375Q91.7813 144.382 91.9757 144.376Q92.1701 144.371 92.3637 144.352Q92.5574 144.334 92.7494 144.303Q92.9414 144.272 93.131 144.229Q93.3205 144.185 93.5068 144.129Q93.693 144.073 93.8752 144.005Q94.0574 143.937 94.2347 143.857Q94.412 143.777 94.5836 143.685Q94.7552 143.594 94.9205 143.491ZM85.2178 97.5532L121.215 75.1971Q121.538 74.9959 121.834 74.7548Q122.129 74.5136 122.391 74.2364Q122.653 73.9592 122.877 73.6507Q123.101 73.3421 123.283 73.0073Q123.465 72.6724 123.603 72.3169Q123.741 71.9614 123.831 71.5911Q123.922 71.2208 123.965 70.8419Q124.007 70.463 124 70.0818Q123.993 69.7006 123.938 69.3234Q123.882 68.9463 123.778 68.5794Q123.674 68.2126 123.524 67.8622Q123.374 67.5117 123.18 67.1836Q122.985 66.8554 122.751 66.555Q122.516 66.2545 122.245 65.9868Q121.973 65.7191 121.669 65.4885Q121.366 65.258 121.035 65.0685L84.3135 44.0287L85.2178 97.5532Z" fill="#FFFFFF" fill-rule="evenodd" filter="url(#filter_1)" />
        <path id="Rectangle" d="M0 0L109.037 62.701L110.392 64L111.327 65.688C111.327 65.688 111.746 66.4907 111.746 67.4739C111.746 68.4571 111.746 68.5253 111.746 68.5253L12.1905 17.4545L0 0Z" fill="#FFE2B7" fill-rule="evenodd" transform="translate(94.194 1.599)" />
        <path id="Rectangle" d="M0 0L21.1867 12.1832L73.3343 42.1704L73.3343 43.6797L8.80426 18.7474L0 0Z" fill="#FFE2B7" fill-rule="evenodd" transform="translate(10.892 1.599)" />
      </g>
    </g>
  </g>
</svg>